<?xml version="1.0" standalone="no"?><!DOCTYPE svg PUBLIC "-//W3C//DTD SVG 1.1//EN" "http://www.w3.org/Graphics/SVG/1.1/DTD/svg11.dtd"><svg t="1749547792139" class="icon" viewBox="0 0 1024 1024" version="1.1" xmlns="http://www.w3.org/2000/svg" p-id="5765" xmlns:xlink="http://www.w3.org/1999/xlink" width="200" height="200"><path d="M64 64m85.333333 0l725.333334 0q85.333333 0 85.333333 85.333333l0 725.333334q0 85.333333-85.333333 85.333333l-725.333334 0q-85.333333 0-85.333333-85.333333l0-725.333334q0-85.333333 85.333333-85.333333Z" fill="#F53F3F" p-id="5766"></path><path d="M561.28 285.994667V460.8h-39.893333v-16.042667h-91.733334v65.173334h119.104v33.109333H429.653333v66.197333h126.485334v33.088h-126.506667v123.605334h-42.133333V285.994667h173.76z m-0.576 235.306666v-32.064h201.130667v31.04c-12.16 56.704-35.626667 105.066667-70.378667 145.066667 28.693333 26.197333 64.853333 46.805333 108.544 61.802667-14.805333 15.509333-25.450667 27.584-31.914667 36.202666-41.386667-19.477333-76.16-42.922667-104.256-70.336-35.136 31.189333-78.805333 56.192-131.029333 74.986667a502.698667 502.698667 0 0 0-26.773333-33.109333c53.930667-17.237333 97.984-40.597333 132.16-70.058667-31.893333-40.533333-52.117333-88.362667-60.672-143.530667h-16.810667zM224 509.930667A778.944 778.944 0 0 0 325.418667 256l42.154666 7.253333a1010.645333 1010.645333 0 0 1-34.773333 111.445334v392.277333h-39.872V465.194667a895.210667 895.210667 0 0 1-50.688 86.613333 414.848 414.848 0 0 0-18.24-41.877333z m356.074667-99.306667h137.322666v-92.053333h-133.888v-33.088h173.76v177.92h-39.893333V443.733333h-137.301333v-33.109333z m-58.666667-91.52h-91.733333v92.565333h91.733333v-92.586666z m199.402667 202.197333H614.826667c8.170667 45.354667 24.981333 84.138667 50.432 116.373334 28.096-32.746667 46.613333-71.552 55.552-116.373334z" fill="#FFFFFF" p-id="5767"></path></svg>